<?xml version="1.0" encoding="UTF-8" standalone="no"?>
<!-- Created with Inkscape (http://www.inkscape.org/) -->

<svg
   xmlns:dc="http://purl.org/dc/elements/1.1/"
   xmlns:cc="http://creativecommons.org/ns#"
   xmlns:rdf="http://www.w3.org/1999/02/22-rdf-syntax-ns#"
   xmlns:svg="http://www.w3.org/2000/svg"
   xmlns="http://www.w3.org/2000/svg"
   xmlns:sodipodi="http://sodipodi.sourceforge.net/DTD/sodipodi-0.dtd"
   xmlns:inkscape="http://www.inkscape.org/namespaces/inkscape"
   width="173.53978mm"
   height="55.636662mm"
   viewBox="0 0 173.53978 55.636662"
   version="1.1"
   id="svg8"
   inkscape:version="0.92.5 (2060ec1f9f, 2020-04-08)"
   sodipodi:docname="placeholder.svg">
  <defs
     id="defs2" />
  <sodipodi:namedview
     id="base"
     pagecolor="#ffffff"
     bordercolor="#666666"
     borderopacity="1.0"
     inkscape:pageopacity="0.0"
     inkscape:pageshadow="2"
     inkscape:zoom="0.98994949"
     inkscape:cx="66.767943"
     inkscape:cy="-51.743554"
     inkscape:document-units="mm"
     inkscape:current-layer="layer1"
     showgrid="false"
     fit-margin-top="0"
     fit-margin-left="0"
     fit-margin-right="0"
     fit-margin-bottom="0"
     inkscape:window-width="2560"
     inkscape:window-height="1017"
     inkscape:window-x="-8"
     inkscape:window-y="-8"
     inkscape:window-maximized="1" />
  <metadata
     id="metadata5">
    <rdf:RDF>
      <cc:Work
         rdf:about="">
        <dc:format>image/svg+xml</dc:format>
        <dc:type
           rdf:resource="http://purl.org/dc/dcmitype/StillImage" />
        <dc:title></dc:title>
      </cc:Work>
    </rdf:RDF>
  </metadata>
  <g
     inkscape:label="Layer 1"
     inkscape:groupmode="layer"
     id="layer1"
     transform="translate(-2.7163064,-20.862475)">
    <path
       style="fill:#000000;fill-opacity:1;stroke:none;stroke-width:0.18520832;stroke-miterlimit:4;stroke-dasharray:none;stroke-opacity:1"
       id="path845"
       d="m 2.7163064,25.985306 c 2.3814301,-1.640421 4.8659658,-2.774523 7.5712556,-3.662261 1.688052,-0.636844 3.461555,-0.915462 5.23891,-1.164696 1.849153,-0.220095 3.714616,-0.333244 5.57653,-0.284784 1.473485,0.05374 2.891683,0.394127 4.298575,0.804299 0.990443,0.278688 1.88373,0.721265 2.607558,1.454551 0.634794,0.668872 1.134975,1.430007 1.527255,2.261145 0.437919,0.835755 0.633465,1.750433 0.751689,2.677684 0.07654,0.866309 -0.16664,1.643959 -0.65572,2.34801 -1.420548,1.395661 -3.251779,2.512862 -5.196671,2.989882 -0.562311,0.137916 -0.894699,0.162517 -1.47688,0.237019 -2.083388,0.186785 -4.178847,0.165481 -6.268649,0.171828 -1.424923,7.94e-4 -2.849845,0.0024 -4.274766,0.0052 0,0 3.155456,-2.291633 3.155456,-2.291633 v 0 c 1.416437,0.0083 2.832898,0.01606 4.249366,0.01029 2.091697,-0.01154 4.192226,0.0013 6.27264,-0.24389 0.602944,-0.101695 0.876883,-0.124936 1.449592,-0.305692 0.195371,-0.06166 0.746398,-0.330213 0.574175,-0.219255 -0.937919,0.604282 -1.924962,1.128795 -2.880342,1.705073 -0.136732,0.08248 0.290868,-0.13485 0.42381,-0.223306 0.119949,-0.07981 0.220317,-0.185713 0.330475,-0.278569 0.538496,-0.586274 0.816446,-1.2588 0.791637,-2.066806 -0.09466,-0.889743 -0.264041,-1.767628 -0.686052,-2.567797 -0.370539,-0.789662 -0.852571,-1.511969 -1.463038,-2.138958 -0.68992,-0.671302 -1.561832,-1.040153 -2.480514,-1.30275 -1.375603,-0.404238 -2.774864,-0.69426 -4.214281,-0.735971 -1.847158,-0.02017 -3.69652,0.08344 -5.528225,0.327997 -1.77193,0.265956 -3.5287427,0.596379 -5.2119567,1.231622 -0.6069052,0.206312 -0.9472533,0.314037 -1.5443401,0.548991 -1.4272691,0.561632 -5.22353405,2.547481 0.7579839,-0.733134 0,0 -3.6954727,1.445934 -3.6954727,1.445934 z"
       inkscape:connector-curvature="0" />
    <path
       style="fill:#000000;fill-opacity:1;stroke:none;stroke-width:0.18520832;stroke-miterlimit:4;stroke-dasharray:none;stroke-opacity:1"
       id="path847"
       d="m 14.327562,28.145266 c -0.03136,1.730878 -0.03012,3.462287 -0.03458,5.193422 -0.01629,2.434097 -0.02087,4.866624 0.05803,7.299637 0.06515,2.251379 0.192129,4.502737 0.169692,6.755577 -0.07643,0.95323 -0.04563,2.016244 -0.691392,2.786647 -4.0612638,2.314816 -3.021947,2.526273 -6.0897925,1.20778 -1.0099952,-0.419353 -2.0029077,-0.878911 -3.0005503,-1.326742 0,0 3.257878,-2.162876 3.257878,-2.162876 v 0 c 0.997177,0.448749 1.9928816,0.902441 3.0078868,1.309849 0.535588,0.218821 1.088098,0.489087 1.660721,0.601625 1.349676,0.26525 3.750775,-1.954046 -2.525361,1.857785 0.875113,-0.467283 0.776108,-1.659331 0.898561,-2.509287 0.07457,-2.253049 -0.05939,-4.507809 -0.114128,-6.760138 -0.08249,-2.431455 -0.108139,-4.862619 -0.09417,-7.295558 -0.0044,-1.719386 -0.003,-3.439059 -0.03458,-5.158184 0,0 3.531789,-1.799537 3.531789,-1.799537 z"
       inkscape:connector-curvature="0" />
    <path
       style="fill:#000000;fill-opacity:1;stroke:none;stroke-width:0.18520832;stroke-miterlimit:4;stroke-dasharray:none;stroke-opacity:1"
       id="path853"
       d="m 24.239809,38.855388 c 0.09359,1.73519 0.150284,3.471648 0.181377,5.208979 -0.0018,2.063723 -0.209397,4.118514 -0.34125,6.17615 -0.100273,1.59558 -0.128975,3.19419 -0.141,4.792466 -0.0052,1.093042 -0.0035,2.186099 0.0039,3.279124 0.06091,0.678141 -0.110211,1.401768 0.09199,2.061615 0.279107,0.202491 0.719024,-0.03893 1.022927,-0.107608 0.341024,-0.135687 0.160757,-0.0741 0.542288,-0.180354 0,0 -3.145553,2.426483 -3.145553,2.426483 v 0 c -0.383662,0.119992 -0.194849,0.06734 -0.565968,0.159639 -0.524095,0.104934 -1.024454,0.134554 -1.340944,-0.379388 -0.241939,-0.701191 -0.09121,-1.455507 -0.12828,-2.184517 0.0048,-1.097949 0.0023,-2.195938 0.01449,-3.293845 0.0228,-1.610551 0.0654,-3.221188 0.16595,-4.829 0.13734,-2.047555 0.346992,-4.09211 0.35471,-6.146134 -0.03429,-1.720855 -0.07152,-3.443941 -0.229083,-5.158816 0,0 3.514398,-1.824794 3.514398,-1.824794 z"
       inkscape:connector-curvature="0" />
    <path
       style="fill:#000000;fill-opacity:1;stroke:none;stroke-width:0.18520832;stroke-miterlimit:4;stroke-dasharray:none;stroke-opacity:1"
       id="path857"
       d="m 36.767042,42.922539 c -1.193969,-0.06635 -2.362941,0.19204 -3.49449,0.546907 -1.252487,0.562893 -3.477178,1.78658 2.090373,-1.255509 0.14991,-0.08191 -0.283274,0.191431 -0.41836,0.295995 -0.309316,0.239424 -0.448447,0.391361 -0.729966,0.666022 -0.821148,0.8484 -1.352627,1.91521 -1.890295,2.95325 -0.558329,1.021315 -0.878152,2.130377 -1.057365,3.273692 -0.03361,0.539385 -0.235746,1.233104 0.109061,1.713214 0.462452,0.2715 1.05428,0.148889 1.54813,0.04526 0.871924,-0.205018 1.647262,-0.651621 2.40886,-1.105966 0,0 -3.063881,2.479836 -3.063881,2.479836 v 0 c -0.793763,0.438232 -1.604637,0.857816 -2.511136,1.0033 -0.645438,0.07153 -1.342843,0.108741 -1.82,-0.40871 -0.381236,-0.601903 -0.306983,-1.304639 -0.217665,-1.985851 0.169122,-1.178462 0.460809,-2.33372 1.016056,-3.395996 0.537559,-1.05741 1.058849,-2.14811 1.831157,-3.057824 1.584505,-1.677908 3.659262,-2.858595 5.830496,-3.629046 1.170107,-0.31174 2.358893,-0.51608 3.575823,-0.46845 0,0 -3.206798,2.329876 -3.206798,2.329876 z"
       inkscape:connector-curvature="0" />
    <path
       style="fill:#000000;fill-opacity:1;stroke:none;stroke-width:0.18520832;stroke-miterlimit:4;stroke-dasharray:none;stroke-opacity:1"
       id="path859"
       d="m 39.426276,42.325297 c -0.150013,1.455868 -0.195209,2.919585 -0.231036,4.38185 0.0059,1.257157 -0.106286,2.522389 0.07464,3.770923 0.129995,0.601557 0.434207,1.190202 1.014872,1.451907 0.903595,0.274092 1.781133,0.06144 2.666484,-0.166431 1.235597,-0.336646 2.403367,-0.882841 3.565279,-1.413463 0,0 -3.070989,2.436323 -3.070989,2.436323 v 0 c -1.176989,0.523486 -2.361097,1.055251 -3.617479,1.36044 -0.959358,0.213392 -1.948082,0.378841 -2.877034,-0.04851 -0.62598,-0.414557 -1.015825,-1.038971 -1.172829,-1.774875 -0.198633,-1.273262 -0.07949,-2.562423 -0.07782,-3.846005 0.03349,-1.461722 0.08705,-2.922804 0.179422,-4.382113 0,0 3.546488,-1.770042 3.546488,-1.770042 z"
       inkscape:connector-curvature="0" />
    <path
       style="fill:#000000;fill-opacity:1;stroke:none;stroke-width:0.18520832;stroke-miterlimit:4;stroke-dasharray:none;stroke-opacity:1"
       id="path865"
       d="m 57.678391,43.596525 c -0.673553,-0.848577 -1.544812,-1.487691 -2.532095,-1.917337 -0.955235,-0.332232 -1.964798,-0.412102 -2.963722,-0.298027 -0.46051,0.0955 -0.788506,0.148003 -1.23526,0.303715 -1.320826,0.460359 -4.67959,2.533203 1.020247,-0.731221 -1.125636,0.633862 -1.962153,1.61608 -2.73416,2.628945 -0.755922,1.039511 -1.361723,2.156018 -1.731586,3.386529 -0.19712,0.812107 -0.363194,1.652408 -0.220324,2.484901 0.19871,0.673309 0.755229,0.928605 1.35605,1.171405 1.116997,0.398685 2.274954,0.296585 3.423492,0.133131 1.800711,-0.251122 3.517362,-0.864529 5.246806,-1.399734 0.248523,-0.0866 0.497044,-0.173198 0.745567,-0.259797 0,0 -3.091431,2.404243 -3.091431,2.404243 v 0 c -0.24828,0.08182 -0.496563,0.163634 -0.744845,0.245451 -1.743199,0.535128 -3.480271,1.123648 -5.297598,1.354259 -1.207673,0.139372 -2.427089,0.185375 -3.578202,-0.279455 -0.708808,-0.315156 -1.312076,-0.724969 -1.559094,-1.501019 -0.190452,-0.889505 -0.04554,-1.786035 0.160999,-2.663557 0.119766,-0.438484 0.196792,-0.768668 0.368514,-1.194073 0.33378,-0.826868 0.847146,-1.570336 1.31494,-2.323507 0.741127,-1.049271 1.572059,-2.085697 2.673636,-2.773275 2.239936,-1.299856 4.416038,-2.972962 7.048857,-3.326376 1.055539,-0.05006 2.106273,0.03558 3.088931,0.457512 1.013319,0.497046 1.900023,1.187656 2.638123,2.046073 0,0 -3.397845,2.051214 -3.397845,2.051214 z"
       inkscape:connector-curvature="0" />
    <path
       style="fill:#000000;fill-opacity:1;stroke:none;stroke-width:0.18520832;stroke-miterlimit:4;stroke-dasharray:none;stroke-opacity:1"
       id="path869"
       d="m 69.308513,45.135138 c 1.419307,0.03702 2.835297,0.02466 4.251389,-0.07408 1.080437,-0.01963 2.122747,-0.278842 3.166459,-0.525413 0.541451,-0.190582 1.194888,-0.02693 1.667619,-0.375467 -1.087067,0.62058 -2.172439,1.244142 -3.261202,1.86174 -0.05344,0.03032 0.136959,-0.06075 0.138018,-0.122189 0.0028,-0.160182 -0.231408,-0.374203 -0.316577,-0.477483 -0.495848,-0.474758 -1.046972,-0.876507 -1.643846,-1.213231 -0.757653,-0.451155 -1.568669,-0.742035 -2.430015,-0.911501 -0.704226,-0.09494 -1.426612,-0.162475 -2.133613,-0.07023 -0.42704,0.06365 -0.867214,0.167675 -1.256364,0.362244 -0.0952,0.0476 -0.369794,0.210949 -0.277172,0.158514 1.038194,-0.58775 2.075929,-1.176311 3.113892,-1.764469 -0.719571,0.513464 -1.196205,1.258104 -1.659313,1.994014 -0.576943,0.902848 -0.957019,1.898084 -1.20469,2.935436 -0.17979,0.82987 -0.239329,1.668949 -0.08793,2.505567 0.137981,0.670234 0.628105,0.913471 1.182616,1.202817 0.85334,0.384355 1.750132,0.279614 2.645487,0.159514 1.15674,-0.154098 2.210665,-0.639678 3.269594,-1.096579 0.145918,-0.0717 0.291835,-0.143393 0.437753,-0.21509 0,0 -3.091392,2.46148 -3.091392,2.46148 v 0 c -0.14755,0.0669 -0.295097,0.133807 -0.442648,0.200713 -1.074232,0.457559 -2.167461,0.877072 -3.338197,1.006657 -0.958284,0.0998 -1.921137,0.107217 -2.802861,-0.343281 -0.647271,-0.352502 -1.174112,-0.752231 -1.358077,-1.508075 -0.184685,-0.884676 -0.1465,-1.77416 0.02793,-2.660163 0.232309,-1.070626 0.577151,-2.110655 1.151093,-3.051873 0.451985,-0.762056 0.910111,-1.538759 1.581454,-2.13015 1.773963,-1.049033 3.25514,-2.398485 5.29921,-2.574578 0.735732,-0.02469 1.476566,0.01611 2.198246,0.169378 0.880922,0.216466 1.714611,0.551204 2.497254,1.014248 0.624739,0.375894 1.223219,0.797383 1.731676,1.324208 1.538664,1.875113 -0.813358,1.899976 -3.090698,3.259445 -0.55916,0.132593 -1.143894,0.136681 -1.698485,0.300066 -1.045469,0.240528 -2.10168,0.420992 -3.177312,0.451781 -1.43237,0.08138 -2.865012,0.06198 -4.299151,0.07812 0,0 3.209845,-2.33209 3.209845,-2.33209 z"
       inkscape:connector-curvature="0" />
    <path
       style="fill:#000000;fill-opacity:1;stroke:none;stroke-width:0.18520832;stroke-miterlimit:4;stroke-dasharray:none;stroke-opacity:1"
       id="path883"
       d="m 80.765361,35.855375 c 1.124704,-0.886939 2.216922,-1.818899 3.260751,-2.799784 0.718119,-0.66862 1.291003,-1.459521 1.78522,-2.301769 0.717037,-1.29037 3.338148,-3.253875 3.907478,-1.62891 0.166143,0.474197 0.159642,1.015098 0.187677,1.508138 0.05358,1.892589 0.03266,3.786423 0.02482,5.679496 0.05736,2.639208 -0.116014,5.270389 -0.287057,7.901839 -0.120875,1.813798 -0.188693,3.630592 -0.213717,5.448102 -0.01042,0.906917 -0.0075,1.813949 -0.0026,2.720895 0.03405,0.37455 0.01114,0.191874 0.06721,0.54822 0,0 -3.51323,1.862722 -3.51323,1.862722 v 0 c -0.06677,-0.391451 -0.03694,-0.188219 -0.08744,-0.609989 0.0026,-0.914731 0.0055,-1.829485 0.02845,-2.743999 0.05232,-1.833843 0.138935,-3.666315 0.268819,-5.496441 0.18841,-2.62124 0.375724,-5.242795 0.288862,-7.873317 -0.0063,-1.876184 5.29e-4,-3.753459 -0.07169,-5.628521 -0.02529,-0.387345 -0.03407,-0.667872 -0.09011,-1.0434 -0.260488,-1.74547 -1.706841,0.364945 3.256174,-2.40188 0.05804,-0.03235 -0.0881,0.09949 -0.132154,0.149233 -0.531175,0.851458 -1.037604,1.724986 -1.786216,2.413066 -1.010605,1.003435 -2.124384,1.901561 -3.208506,2.824232 0,0 -3.682768,1.472067 -3.682768,1.472067 z"
       inkscape:connector-curvature="0" />
    <path
       style="fill:#000000;fill-opacity:1;stroke:none;stroke-width:0.18520832;stroke-miterlimit:4;stroke-dasharray:none;stroke-opacity:1"
       id="path889"
       d="m 87.685336,43.884638 c 1.894679,-1.551639 4.040437,-2.675504 6.15882,-3.900993 0.71646,-0.329054 1.488935,-0.436256 2.2678,-0.473305 0.670724,0.04976 0.96048,0.545621 1.187458,1.11171 0.311054,1.207688 0.387207,2.470621 0.485029,3.711107 0.123115,1.904529 0.144102,3.813818 0.164552,5.721641 0.01117,1.532464 0.01458,3.064962 0.02625,4.597424 0.0029,0.371271 -0.0074,0.515958 0.03319,0.866489 0.0095,0.08228 0.01177,0.167918 0.04254,0.244824 0.02553,0.06384 0.493572,-0.415237 0.12351,-0.232619 -1.064466,0.525291 -2.077805,1.148384 -3.11671,1.722575 1.029274,-0.900541 1.806578,-2.044666 2.597023,-3.149872 0,0 3.570702,-1.550289 3.570702,-1.550289 v 0 c -0.78207,1.114964 -1.564766,2.231239 -2.481047,3.242185 -1.243285,0.721455 -2.447967,1.513965 -3.72985,2.164366 -0.172622,0.08758 -0.429815,-0.2198 -0.47748,-0.332452 -0.149857,-0.354176 -0.03459,-0.822333 -0.07357,-1.18633 0.01447,-1.537719 0.02082,-3.075509 0.01304,-4.613291 -0.01198,-1.897338 -0.02745,-3.79644 -0.163793,-5.689777 -0.102192,-1.196333 -0.196403,-2.410238 -0.479835,-3.578384 -0.204843,-0.500915 -0.328028,-0.730218 -0.918593,-0.692081 -0.748083,0.06898 -1.480495,0.2252 -2.142321,0.599006 6.042557,-3.520252 1.858864,-1.138804 0.590185,-0.07635 0,0 -3.676891,1.49442 -3.676891,1.49442 z"
       inkscape:connector-curvature="0" />
    <path
       style="fill:#000000;fill-opacity:1;stroke:none;stroke-width:0.18520832;stroke-miterlimit:4;stroke-dasharray:none;stroke-opacity:1"
       id="path891"
       d="m 107.94527,41.416332 c -0.15584,0.02689 -0.3147,0.03998 -0.46752,0.08068 -0.1998,0.0532 -0.79904,0.295595 -0.97592,0.381434 -0.15271,0.07411 -0.59293,0.330854 -0.44511,0.247391 3.12857,-1.766533 3.86591,-2.374075 2.60253,-1.384586 -0.81147,0.683012 -1.10891,1.692246 -1.34826,2.686246 -0.20724,1.051676 -0.28015,2.122641 -0.15817,3.187435 0.13199,1.04825 0.65731,1.902145 1.25845,2.738925 0.51953,0.668194 1.15992,1.184592 1.95378,1.474523 0.42147,0.09669 0.88756,0.246247 1.32438,0.142816 0.16947,-0.04013 0.57769,-0.240323 0.72075,-0.306721 1.5245,-0.933074 -0.52368,0.326009 -2.50621,1.419527 -0.16214,0.08943 0.31093,-0.201885 0.4578,-0.31465 0.52258,-0.401238 0.88093,-0.863143 1.25441,-1.399075 0.77866,-1.137549 1.17245,-2.414627 1.39197,-3.759488 0.19179,-1.197745 0.086,-2.384724 -0.33173,-3.518725 -0.29212,-0.749388 -0.74665,-1.407174 -1.24413,-2.031762 0,0 3.39854,-2.027394 3.39854,-2.027394 v 0 c 0.51472,0.662599 0.98253,1.360096 1.29424,2.144591 0.44629,1.192559 0.59593,2.436667 0.40603,3.704074 -0.192,1.388536 -0.54239,2.718829 -1.31371,3.911137 -0.22932,0.36644 -0.4585,0.765381 -0.74466,1.093245 -0.16817,0.192683 -0.6565,0.63673 -0.88814,0.776092 -3.25251,1.956765 -2.5904,1.620051 -4.28655,2.448525 -0.79532,0.267407 -1.44556,0.229659 -2.22791,-0.07861 -0.82518,-0.371843 -1.51371,-0.944459 -2.05925,-1.669896 -0.63697,-0.889191 -1.18502,-1.807316 -1.35012,-2.911819 -0.15357,-1.103691 -0.0932,-2.212097 0.0972,-3.30997 0.21565,-1.035827 0.48658,-2.132049 1.2366,-2.917634 1.42871,-1.28995 0.39123,-0.396364 4.14425,-2.565506 0.60103,-0.347382 1.29951,-0.50442 1.9721,-0.637627 0,0 -3.1656,2.396818 -3.1656,2.396818 z"
       inkscape:connector-curvature="0" />
    <path
       style="fill:#000000;fill-opacity:1;stroke:none;stroke-width:0.18520832;stroke-miterlimit:4;stroke-dasharray:none;stroke-opacity:1"
       id="path895"
       d="m 125.51336,34.259639 c -0.0464,2.115671 -0.0471,4.232111 -0.0523,6.348203 0.0365,3.000624 -0.14985,5.994217 -0.39019,8.983078 -0.20944,2.444736 -0.58033,4.871 -0.88823,7.304177 -0.0357,1.078458 -0.54115,2.201521 -0.30521,3.282574 0.0152,0.0029 0.033,0.01752 0.0456,0.0085 0.0285,-0.02037 0.0363,-0.06105 0.0618,-0.08514 1.27553,-1.205934 -4.4872,2.603683 -2.77301,1.498759 0.0962,-0.06198 0.1895,-0.128257 0.28425,-0.192387 0.3829,-0.279558 0.74108,-0.588883 1.12638,-0.865174 0,0 3.69886,-1.441394 3.69886,-1.441394 v 0 c -0.413,0.239694 -0.77554,0.533672 -1.1344,0.84823 -1.31496,0.99469 -2.65538,1.641089 -4.21999,2.456286 -0.24388,0.127066 -0.49632,-0.181086 -0.59642,-0.343324 -0.25718,-1.146111 0.22322,-2.304706 0.32099,-3.444631 0.32553,-2.436482 0.73075,-4.863452 0.94765,-7.313575 0.25474,-2.976375 0.44879,-5.958383 0.39145,-8.948079 -0.005,-2.098315 -0.006,-4.197001 -0.0523,-6.294887 0,0 3.53514,-1.801249 3.53514,-1.801249 z"
       inkscape:connector-curvature="0" />
    <path
       style="fill:#000000;fill-opacity:1;stroke:none;stroke-width:0.18520832;stroke-miterlimit:4;stroke-dasharray:none;stroke-opacity:1"
       id="path901"
       d="m 136.21965,42.368411 c -0.72453,-0.417986 -1.54531,-0.930447 -2.42588,-0.810418 -0.14645,0.01995 -0.28416,0.08144 -0.42625,0.122152 -0.13113,0.06379 -0.26644,0.119618 -0.39339,0.191366 -0.12527,0.0708 -0.48828,0.304101 -0.36182,0.235444 1.0132,-0.550095 1.98931,-1.16995 3.02309,-1.680326 0.15472,-0.07638 -0.24877,0.239575 -0.36434,0.367699 -0.27906,0.30938 -0.37761,0.473083 -0.61637,0.814597 -0.51167,0.780298 -0.90622,1.628642 -1.17927,2.519579 -0.15138,0.495679 -0.20864,0.969727 -0.0117,1.452658 0.34189,0.388583 0.8288,0.476239 1.31507,0.555622 0.75592,0.140452 1.46274,0.02604 2.1946,-0.15763 0.33597,-0.131649 0.67739,-0.246309 1.02183,-0.353209 0,0 -3.13702,2.431405 -3.13702,2.431405 v 0 c -0.34387,0.113916 -0.68518,0.237434 -1.03772,0.32281 -0.76485,0.158832 -1.52995,0.181819 -2.30066,0.02724 -0.60039,-0.141499 -1.16863,-0.347546 -1.53251,-0.878665 -0.23795,-0.562586 -0.2678,-1.106459 -0.0923,-1.700797 0.25235,-0.929651 0.64312,-1.812476 1.14333,-2.636438 0.18962,-0.299077 0.65114,-1.083773 0.93517,-1.27267 1.28103,-0.851932 2.89889,-2.128613 4.55094,-2.620576 0.1602,-0.01445 0.31977,-0.04594 0.4806,-0.04336 0.93542,0.015 1.76646,0.535625 2.55651,0.973714 0,0 -3.34193,2.139802 -3.34193,2.139802 z"
       inkscape:connector-curvature="0" />
    <path
       style="fill:#000000;fill-opacity:1;stroke:none;stroke-width:0.18520832;stroke-miterlimit:4;stroke-dasharray:none;stroke-opacity:1"
       id="path903"
       d="m 142.62578,30.31536 c -1.07273,-0.06725 -2.15426,-0.234331 -3.22975,-0.155527 -1.41308,0.427471 -1.02778,0.333922 2.88974,-1.663859 0.0905,-0.04617 -0.15254,0.139943 -0.20083,0.229351 -0.25533,0.472745 -0.23438,1.122646 -0.27303,1.63575 -0.091,2.343068 -0.0472,4.688363 -0.096,7.032307 -0.0558,2.974337 -0.29762,5.939936 -0.4985,8.906658 -0.13294,1.950493 -0.24772,3.912373 0.0424,5.852713 0.0575,0.482619 0.19875,0.927042 0.40767,1.360876 0,0 -3.44888,1.952091 -3.44888,1.952091 v 0 c -0.21692,-0.474271 -0.3753,-0.955111 -0.43,-1.479291 -0.29212,-1.976707 -0.16168,-3.977761 -0.0134,-5.962909 0.21682,-2.961428 0.48064,-5.921933 0.51499,-8.89314 0.0431,-2.335673 -0.0163,-4.67097 0.0131,-7.006789 0.10081,-2.55171 0.37587,-3.937092 4.28891,-4.302019 1.09029,0.0071 2.17636,0.128434 3.26425,0.190992 0,0 -3.23072,2.302796 -3.23072,2.302796 z"
       inkscape:connector-curvature="0" />
    <path
       style="fill:#000000;fill-opacity:1;stroke:none;stroke-width:0.18520832;stroke-miterlimit:4;stroke-dasharray:none;stroke-opacity:1"
       id="path905"
       d="m 149.51982,41.661741 c 1.39116,0.01725 2.78253,0.01312 4.17379,0.01106 1.15546,-0.0019 2.31092,-0.0041 3.46638,-0.0079 0.34896,0.004 0.71865,0.02418 1.03319,-0.157876 0.0559,-0.03235 0.20343,-0.15774 0.14728,-0.125855 -2.92093,1.658617 -4.3539,2.628559 -3.22873,1.868638 -0.0776,-0.41702 -0.42278,-0.739177 -0.67509,-1.064582 -0.3778,-0.562658 -0.92097,-0.993807 -1.42569,-1.439212 -0.64927,-0.472559 -1.33686,-0.876244 -2.06465,-1.213977 -0.56043,-0.238181 -1.07574,-0.3551 -1.67447,-0.242702 -1.31484,0.779862 1.1029,-0.655918 3.09168,-1.733704 0.0582,-0.03154 -0.10212,0.08695 -0.13868,0.142129 -0.17233,0.260075 -0.18169,0.6071 -0.2169,0.903801 -0.0797,1.250357 -0.0639,2.504956 -0.0645,3.757282 0.006,1.391938 0.25452,2.758731 0.60251,4.100769 0.21013,0.799213 0.56057,1.520798 1.19326,2.060487 0.59217,0.501769 1.19294,0.555591 1.93456,0.460542 0.68657,-0.0582 1.30086,-0.364466 1.8961,-0.687655 0,0 -3.07904,2.462073 -3.07904,2.462073 v 0 c -0.63929,0.291039 -1.28712,0.549028 -2.00052,0.573188 -0.79883,0.01534 -1.52393,-0.15851 -2.126,-0.71727 -0.65401,-0.624874 -1.06179,-1.397225 -1.28198,-2.27634 -0.34426,-1.376217 -0.61012,-2.770698 -0.63194,-4.195157 -0.005,-1.256778 -0.0232,-2.514126 0.0101,-3.770611 0.13513,-2.104628 0.83917,-3.067785 4.0082,-3.452632 0.62459,-0.01627 1.22309,0.169015 1.7856,0.432601 0.74451,0.372825 1.46305,0.792536 2.12064,1.306375 0.5246,0.461444 1.08437,0.909619 1.4774,1.494184 0.32597,0.415385 0.68603,0.80907 0.83594,1.32856 0.23488,1.905135 -3.12187,2.529457 -4.72627,2.510401 -1.14825,-0.0038 -2.2965,-0.0059 -3.44475,-0.0079 -1.40141,-0.0021 -2.80293,-0.006 -4.20425,0.01106 0,0 3.2068,-2.329876 3.2068,-2.329876 z"
       inkscape:connector-curvature="0" />
    <path
       style="fill:#000000;fill-opacity:1;stroke:none;stroke-width:0.18520832;stroke-miterlimit:4;stroke-dasharray:none;stroke-opacity:1"
       id="path911"
       d="m 166.4056,39.8723 c -0.0587,1.420159 0.0577,2.838302 0.13473,4.255424 0.0742,1.453046 0.0955,2.907966 0.11152,4.362585 0.01,1.076333 0.0127,2.152702 0.0184,3.229057 5.3e-4,0.128505 10e-4,0.257011 0.002,0.385513 0,0 -3.53163,1.799088 -3.53163,1.799088 v 0 c 8e-4,-0.129265 0.002,-0.25853 0.003,-0.387792 0.007,-1.079635 0.0118,-2.159299 0.008,-3.238958 -0.007,-1.451023 -0.0231,-2.902394 -0.0939,-4.351949 -0.0717,-1.416981 -0.19027,-2.832089 -0.18726,-4.251721 0,0 3.53515,-1.801247 3.53515,-1.801247 z"
       inkscape:connector-curvature="0" />
    <path
       style="fill:#000000;fill-opacity:1;stroke:none;stroke-width:0.18520832;stroke-miterlimit:4;stroke-dasharray:none;stroke-opacity:1"
       id="path913"
       d="m 164.6157,45.472437 c 0.54152,-0.834742 1.16975,-1.596938 2.00137,-2.150703 0.82921,-0.350729 2.99399,-2.463289 4.65015,-2.107676 0.0855,0.01836 0.41697,0.146894 0.50694,0.180906 0.41061,0.177843 0.78234,0.383516 1.22851,0.466543 0.37808,0.0038 0.8381,0.167383 1.20497,0.01516 0.084,-0.03488 0.15277,-0.09892 0.22915,-0.148381 -6.05571,3.211589 -3.56709,2.286204 -2.59433,1.350759 0.29842,-0.286978 0.55091,-0.603118 0.79223,-0.937824 0,0 3.62139,-1.594889 3.62139,-1.594889 v 0 c -1.05194,1.89299 -3.04309,2.645484 -4.94491,3.63869 -0.52636,0.108201 -1.06166,0.05822 -1.5846,-0.05959 -0.43464,-0.126367 -0.81934,-0.352181 -1.24685,-0.496091 -0.32917,-0.09504 -0.63419,-0.126031 -0.97017,-0.02737 -0.0974,0.02859 -0.37228,0.158398 -0.28548,0.105815 1.02147,-0.618818 2.06251,-1.204738 3.09377,-1.807107 -0.88317,0.439497 -1.54612,1.147426 -2.06661,1.981102 0,0 -3.63553,1.590664 -3.63553,1.590664 z"
       inkscape:connector-curvature="0" />
    <path
       style="fill:#000000;fill-opacity:1;stroke:none;stroke-width:0.18520832;stroke-miterlimit:4;stroke-dasharray:none;stroke-opacity:1"
       id="path953"
       d="m 24.180173,61.01389 c 1.803269,-0.915864 3.731606,-1.555772 5.658654,-2.153502 3.277518,-1.033299 6.642166,-1.712937 10.044708,-2.16126 2.986193,-0.336595 6.006819,-0.516136 8.997174,-0.118721 0.608129,0.08082 1.209747,0.204756 1.814619,0.307134 4.071807,0.79653 7.784356,2.690682 11.45418,4.547301 4.135546,2.218451 8.190256,4.580882 12.314308,6.821135 2.781785,1.460426 5.581613,2.906035 8.539091,3.983614 1.997388,0.727766 2.276311,0.750338 4.31763,1.284627 2.952118,0.641601 5.975659,0.973899 8.998712,0.935741 2.127115,-0.02685 2.868909,-0.157335 5.009451,-0.384016 6.27914,-0.82984 12.34416,-2.710117 18.38292,-4.551053 4.82648,-1.558923 2.38537,-0.756142 7.32265,-2.410442 0,0 -2.60975,2.028362 -2.60975,2.028362 v 0 c -4.96268,1.668243 -2.5092,0.859827 -7.35968,2.427547 -6.07813,1.857401 -12.18518,3.752366 -18.510381,4.565475 -0.867476,0.0887 -1.732695,0.203274 -2.602431,0.266089 -3.857085,0.278572 -7.742449,-0.04795 -11.512076,-0.897252 C 83.7181,75.309269 82.989543,75.137131 82.274393,74.918463 78.519974,73.7705 75.008355,71.989438 71.550225,70.158712 67.428271,67.915681 63.373449,65.553266 59.226566,63.356823 55.567555,61.52248 51.860979,59.667224 47.797939,58.921668 c -0.600945,-0.09487 -1.198943,-0.210807 -1.802836,-0.284626 -2.976849,-0.363884 -5.980393,-0.164449 -8.948058,0.181888 -3.403251,0.474327 -6.76828,1.177602 -10.042046,2.236528 -1.948961,0.632833 -3.906667,1.29494 -5.708431,2.285662 0,0 2.883605,-2.32723 2.883605,-2.32723 z"
       inkscape:connector-curvature="0" />
    <path
       style="fill:#000000;fill-opacity:1;stroke:none;stroke-width:0.18520832;stroke-miterlimit:4;stroke-dasharray:none;stroke-opacity:1"
       id="path967"
       d="m 8.0642041,29.776099 c -0.030112,1.559105 -0.024768,3.118692 -0.024844,4.678027 -8.731e-4,1.620181 0.00382,3.240355 0.00446,4.860533 0.014661,1.156901 -0.039914,2.315673 0.084329,3.467698 0.092123,0.456142 0.041023,0.233087 0.1521915,0.669415 0,0 -3.2575624,1.763672 -3.2575624,1.763672 v 0 C 4.9042354,44.751582 4.9613333,44.991525 4.8529885,44.495259 4.729213,43.324713 4.7929146,42.150548 4.7851152,40.975055 c 6.35e-4,-1.621695 0.00533,-3.243385 0.00446,-4.865082 -7.64e-5,-1.550892 0.00545,-3.102049 -0.024844,-4.652708 0,0 3.2994709,-1.681166 3.2994709,-1.681166 z"
       inkscape:connector-curvature="0" />
  </g>
</svg>
